<svg class="img-fluid" id="outputsvg" xmlns="http://www.w3.org/2000/svg" style="transform: matrix(1, 0, 0, 1, 0, 0); transform-origin: 50% 50%; cursor: move; transition: transform 200ms ease-in-out 0s;" width="126" height="117" viewBox="0 0 1260 1170"><g id="l76sjG9smB853Ukkndnsnmf" fill="rgb(0,75,153)" style="transform: none;"><g><path id="pVHu4xGeh" d="M505 1153 c-11 -2 -55 -16 -97 -29 l-78 -26 0 -159 0 -160 36 3 c36 3 38 6 135 172 55 92 99 177 99 187 0 15 -7 19 -37 18 -21 -1 -47 -3 -58 -6z"></path><path id="peHR2Vzmg" d="M660 1144 c0 -11 45 -97 101 -192 99 -169 102 -172 135 -172 l34 0 0 159 0 159 -80 27 c-43 14 -104 29 -135 32 -49 5 -55 4 -55 -13z"></path><path id="pJHDK0NyH" d="M502 834 c-69 -118 -92 -165 -92 -192 l0 -35 78 9 c97 11 196 11 290 0 l72 -9 0 37 c0 29 -21 72 -92 191 -91 154 -92 155 -127 155 -36 0 -37 -1 -129 -156z"></path><path id="pr3tcTGnT" d="M82 858 c-48 -84 -65 -145 -70 -250 -3 -80 0 -109 18 -170 23 -76 75 -178 91 -178 5 0 9 22 9 48 0 83 26 140 97 210 48 49 63 71 63 93 l0 29 -80 0 -80 0 0 135 c0 76 -4 135 -9 135 -5 0 -23 -24 -39 -52z"></path><path id="p56LdxkWv" d="M1130 776 l0 -136 -80 0 -80 0 0 -34 c0 -26 6 -38 27 -51 79 -52 133 -148 133 -238 0 -76 14 -72 60 19 44 86 60 153 60 249 0 95 -16 162 -60 249 -54 107 -60 100 -60 -58z"></path><path id="p16MnEzbwG" d="M485 551 c-78 -19 -123 -62 -144 -136 -6 -22 -11 -108 -11 -192 l0 -152 83 -28 c73 -25 96 -27 217 -27 121 0 144 2 218 27 l82 28 0 157 c0 86 -5 175 -11 197 -16 58 -75 110 -139 124 -56 12 -248 13 -295 2z"></path></g></g><g id="l1teqJkeNQW2JLztt4QwHM0" fill="rgb(255,255,255)" style="transform: none;"><g><path id="pUKhtr5hb" d="M482 1002 c-132 -228 -121 -224 -122 -44 l0 153 -52 -28 c-29 -15 -87 -63 -130 -105 l-78 -77 0 -145 0 -146 79 0 79 0 -62 -63 c-72 -71 -96 -127 -96 -219 l0 -59 77 -77 c43 -42 102 -90 131 -105 l52 -28 0 143 c0 201 19 257 103 300 53 26 196 36 280 18 71 -14 129 -64 146 -125 6 -22 11 -107 11 -188 l0 -148 53 28 c28 15 87 62 130 104 l77 77 0 68 c0 102 -44 184 -135 251 l-30 22 83 1 82 0 0 146 0 146 -72 72 c-40 40 -98 86 -128 104 l-55 31 -5 -152 -5 -152 -104 178 -104 177 -57 0 -56 0 -92 -158z m247 -198 c51 -86 91 -158 88 -160 -2 -2 -28 0 -57 6 -67 13 -178 13 -254 0 -33 -5 -61 -8 -63 -6 -5 4 180 316 188 316 3 0 47 -70 98 -156z"></path></g></g></svg>